<?xml version="1.0" encoding="UTF-8"?>
<svg width="300px" height="149px" viewBox="0 0 300 149" version="1.1" xmlns="http://www.w3.org/2000/svg" xmlns:xlink="http://www.w3.org/1999/xlink">
    <!-- Generator: Sketch 45.1 (43504) - http://www.bohemiancoding.com/sketch -->
    <title>white_perfect-scroll-down-arrow</title>
    <desc>Created with Sketch.</desc>
    <defs></defs>
    <g id="Page-1" stroke="none" stroke-width="1" fill="none" fill-rule="evenodd">
        <path d="M150,149 C146.192203,149 142.656392,147.50388 140.004533,144.851666 L1.0199456,5.84847102 C-0.339981868,4.48836148 -0.339981868,2.38019169 1.0199456,1.02008215 C2.37987307,-0.340027385 4.48776065,-0.340027385 5.84768812,1.02008215 L144.832276,140.023277 C146.192203,141.383387 148.028105,142.131447 150,142.131447 C151.971895,142.131447 153.807797,141.383387 155.167724,140.023277 L294.152312,1.08808763 C295.512239,-0.272021908 297.620127,-0.272021908 298.980054,1.08808763 C300.339982,2.44819717 300.339982,4.55636696 298.980054,5.91647649 L159.995467,144.851666 C157.275612,147.50388 153.739801,149 150,149 Z" id="white---perfect-scroll-down-arrow" fill="#FFFFFF" fill-rule="nonzero"></path>
    </g>
</svg>